<?xml version="1.0" encoding="UTF-8" standalone="no" ?>
<!DOCTYPE svg PUBLIC "-//W3C//DTD SVG 1.1//EN" "http://www.w3.org/Graphics/SVG/1.1/DTD/svg11.dtd">
<svg xmlns="http://www.w3.org/2000/svg" xmlns:xlink="http://www.w3.org/1999/xlink" version="1.1" width="500" height="500" viewBox="0 0 500 500" xml:space="preserve">
<g transform="matrix(1 0 0 1 37.35 410.13)" id="SCk1u3fKDPG0A7dy24BSC"  >
<path style="stroke: rgb(0,0,0); stroke-width: 1; stroke-dasharray: none; stroke-linecap: round; stroke-dashoffset: 0; stroke-linejoin: round; stroke-miterlimit: 10; fill: none; fill-rule: nonzero; opacity: 1;" vector-effect="non-scaling-stroke"  transform=" translate(-37.35, -410.13)" d="M 37.345221441124785 410.1348355029951 L 37.34722144112478 410.1348355029951" stroke-linecap="round" />
</g>
<g transform="matrix(1.07 0 0 0.95 250 289.05)" id="-cDeZIqzm9Le1BUpOt5nb"  >
<path style="stroke: rgb(0,0,0); stroke-width: 1; stroke-dasharray: none; stroke-linecap: butt; stroke-dashoffset: 0; stroke-linejoin: miter; stroke-miterlimit: 4; fill: rgb(255,255,255); fill-opacity: 0; fill-rule: nonzero; opacity: 1;" vector-effect="non-scaling-stroke"  transform=" translate(0, 0)" d="M -231.98594 11.96472 L -121.39585 -9.64039 C -121.39585 -9.64039 -89.87191 -14.25404 -89.87191 -2.39529 C -89.87191 9.463449999999998 -98.02805000000001 31.7293 -107.20563 35.02236 C -115.67484999999999 38.06125 -126.95224999999999 30.2511 -119.48301000000001 11.96472 C -112.01377000000001 -6.321660000000001 -73.86455000000001 44.72723 -34.76708000000001 39.894189999999995 C 4.330379999999991 35.06115 13.258919999999996 -10.084230000000005 41.81779999999999 -2.395300000000006 C 70.37668 5.293629999999994 84.77340999999998 -28.676760000000005 113.55197 -38.123160000000006 C 142.33053 -47.56956000000001 163.522 -22.294910000000005 179.08736 -17.461870000000005 C 194.65272 -12.628830000000004 231.98593 -38.123160000000006 231.98593 -38.123160000000006" stroke-linecap="round" />
</g>
<g transform="matrix(1 0 0 1 5.71 389.94)" id="pEYgtRpNmXnZZy2jkjpmN"  >
<path style="stroke: rgb(0,0,0); stroke-width: 1; stroke-dasharray: none; stroke-linecap: round; stroke-dashoffset: 0; stroke-linejoin: round; stroke-miterlimit: 10; fill: none; fill-rule: nonzero; opacity: 1;" vector-effect="non-scaling-stroke"  transform=" translate(-5.71, -389.94)" d="M 5.7107750439367395 389.9350015342986 L 5.71277504393674 389.9350015342986" stroke-linecap="round" />
</g>
<g transform="matrix(1 0 0 1 10.11 173.88)" id="hQE9USZKCuuQTBGb_Get7"  >
<path style="stroke: rgb(0,0,0); stroke-width: 1; stroke-dasharray: none; stroke-linecap: round; stroke-dashoffset: 0; stroke-linejoin: round; stroke-miterlimit: 10; fill: none; fill-rule: nonzero; opacity: 1;" vector-effect="non-scaling-stroke"  transform=" translate(-10.11, -173.88)" d="M 10.104448154657296 173.8846034343277 L 10.106448154657295 173.8846034343277" stroke-linecap="round" />
</g>
<g transform="matrix(1 0 0 1 427.5 118.63)" id="w1H-I3yyd-pCAAN8msCsL"  >
<path style="stroke: rgb(0,0,0); stroke-width: 1; stroke-dasharray: none; stroke-linecap: butt; stroke-dashoffset: 0; stroke-linejoin: miter; stroke-miterlimit: 4; fill: rgb(255,255,255); fill-opacity: 0; fill-rule: nonzero; opacity: 1;" vector-effect="non-scaling-stroke"  transform=" translate(0, 0)" d="M 0 0 z" stroke-linecap="round" />
</g>
</svg>
