<svg xmlns="http://www.w3.org/2000/svg" width="32" height="32" fill="none"><path fill="#FFC244" fill-rule="evenodd" d="M7 10.357C7 5.197 11.268 1 16.515 1 21.76 1 26.029 5.198 26 10.357a9.101 9.101 0 01-1.779 5.452l-.237.35-4.95 6.879s-.622.962-1.926.962h-1.186c-1.334 0-1.927-.962-1.927-.962l-4.95-6.88-.267-.35A9.303 9.303 0 017 10.359zm13.16 3.09l.267-.35c.593-.816.92-1.748.92-2.769 0-2.623-2.165-4.751-4.832-4.751-2.668 0-4.832 2.128-4.832 4.751 0 .991.326 1.953.92 2.77l.266.379 3.646 5.043 3.645-5.073zM16.5 26c-1.433 0-2.5 1.114-2.5 2.514 0 1.343 1.067 2.457 2.472 2.486C17.932 31 19 29.886 19 28.514v-.028A2.461 2.461 0 0016.5 26z" clip-rule="evenodd"/></svg>