<?xml version="1.0" encoding="UTF-8"?><svg id="Layer_2" xmlns="http://www.w3.org/2000/svg" xmlns:xlink="http://www.w3.org/1999/xlink" viewBox="0 0 2496.44 682.49"><defs><style>.cls-1,.cls-2{fill:none;}.cls-3{clip-path:url(#clippath);}.cls-2{stroke:#414042;stroke-miterlimit:10;stroke-width:2px;}</style><clipPath id="clippath"><rect class="cls-1" x="493.18" width="1940" height="682.49"/></clipPath></defs><g id="Layer_3"><g class="cls-3"><path class="cls-2" d="M.18,464.51c183.55-33.56,374.37-28.61,557.53-63.71,183.16-35.11,369.61-123.4,436.6-275.5,5.93-13.47,10.51-29.66,1-41.48-12.78-15.9-41.9-12.35-60.17-1.19-50.59,30.92-54.4,95.22-40.25,147.51,17.15,63.4,68.08,131.19,143.09,131.37,38.55,.09,73.55-18.04,107.18-34.39,199.95-97.16,428.72-149.18,657.86-149.58,142.4-.25,288.42,18.66,424.84-16.78,99.71-25.9,186.8-79.19,267.99-135.72"/></g></g></svg>
