<?xml version="1.0" encoding="UTF-8" standalone="no" ?>
<!DOCTYPE svg PUBLIC "-//W3C//DTD SVG 1.1//EN" "http://www.w3.org/Graphics/SVG/1.1/DTD/svg11.dtd">
<svg xmlns="http://www.w3.org/2000/svg" xmlns:xlink="http://www.w3.org/1999/xlink" version="1.1" width="640" height="640" viewBox="0 0 640 640" xml:space="preserve">
<desc>Created with Fabric.js 4.6.0</desc>
<defs>
</defs>
<g transform="matrix(1 0 0 1.58 320 321.25)" id="XSPP5eLlYOYuz13aKPBsw"  >
<path style="stroke: rgb(0,0,0); stroke-width: 1; stroke-dasharray: none; stroke-linecap: butt; stroke-dashoffset: 0; stroke-linejoin: miter; stroke-miterlimit: 4; fill: rgb(255,255,255); fill-opacity: 0; fill-rule: nonzero; opacity: 1;" vector-effect="non-scaling-stroke"  transform=" translate(0, 0)" d="M -3.37434 -158.03163 C -4.49912 -97.29349 -3.37434 -79.29701 -3.37434 -79.29701 L 4.49912 -69.17399 L -22.49561 -69.17399 L 12.37258 -63.550090000000004 L -26.994730000000004 -63.550090000000004 L 19.121259999999992 -57.926190000000005 L -33.743410000000004 -57.926190000000005 L 29.244289999999992 -52.302290000000006 L -41.616870000000006 -52.302290000000006 L 38.24252999999999 -46.67839000000001 L -49.490330000000014 -46.67839000000001 L 44.991219999999984 -39.92971000000001 L -56.23901000000002 -39.92971000000001 L 53.98945999999998 -34.30581000000001 L -62.987690000000015 -34.30581000000001 L 61.86292999999999 -28.68191000000001 L -70.86115 -28.68191000000001 L 69.73639000000001 -21.93323000000001 L -77.60982999999997 -21.93323000000001 L 76.48507000000002 -16.30933000000001 L -85.48329999999997 -16.30933000000001 L 83.23375000000003 -9.56065000000001 L -92.23197999999998 -9.56065000000001 L 83.23375000000003 -2.8119700000000094 L -92.23197999999998 -2.8119700000000094 L 89.98243000000001 1.6871499999999902 L -97.85588 1.6871499999999902 L -97.85588 9.56060999999999 L 89.98243000000001 9.56060999999999 L -92.23197999999998 1.6871499999999902 L -97.85587999999998 15.18450999999999 L 96.73111 15.18450999999999 L -103.47979000000001 20.80840999999999 L 103.47978999999998 20.80840999999999 L -110.22847000000002 25.869919999999993 L 111.35324999999997 25.869919999999993 L -116.97715000000002 32.05620999999999 L 116.97715999999997 32.05620999999999 L -123.72583000000003 39.929669999999994 L 123.72583999999998 39.929669999999994 L -130.47451 47.803129999999996 L 131.59929999999997 47.803129999999996 L -138.34798 53.427029999999995 L 131.59929999999997 53.427029999999995 L -143.97188000000006 60.175709999999995 L 141.72231999999997 60.175709999999995 L -150.72056000000003 66.92438999999999 L 150.72055999999998 66.92438999999999 L -41.616870000000034 75.92262999999998 L 19.121269999999967 75.92262999999998 L -41.616870000000034 84.92086999999998 L 12.372589999999967 84.92086999999998 L -41.616870000000034 97.29344999999998 L 19.121269999999967 97.29344999999998 L -41.616870000000034 108.54124999999998 L 19.121269999999967 108.54124999999998 L -13.497360000000036 116.41470999999997 L -13.497360000000036 158.03157999999996 L -13.497360000000036 158.03157999999996" stroke-linecap="round" />
</g>
</svg>